<svg width="7" height="6" viewBox="0 0 7 6" fill="none" xmlns="http://www.w3.org/2000/svg">
<path d="M5.70703 3.75551C5.73615 3.96113 5.68154 4.16978 5.55519 4.33563C5.42884 4.50149 5.24108 4.611 5.03314 4.64012L1.9419 4.98982C1.73261 5.00785 1.52464 4.943 1.36368 4.80952C1.20272 4.67605 1.10193 4.48487 1.08346 4.27798L0.810824 1.91716C0.782089 1.71159 0.836845 1.50314 0.963125 1.33737C1.0894 1.17161 1.27694 1.06201 1.48472 1.03254L4.57595 0.684224C4.67962 0.675115 4.78409 0.686313 4.88337 0.717176C4.98266 0.74804 5.0748 0.797963 5.15454 0.864085C5.23429 0.930208 5.30005 1.01123 5.34807 1.10252C5.39609 1.1938 5.42543 1.29356 5.4344 1.39607L5.70703 3.75551Z" stroke="#763317" stroke-linecap="round" stroke-linejoin="round"/>
</svg>
